Coordinates
version=1
nRows=5
nColumns=40
inDegrees=yes
endheader
time	pelvis_tilt	pelvis_list	pelvis_rotation	pelvis_tx	pelvis_ty	pelvis_tz	hip_flexion_r	hip_adduction_r	hip_rotation_r	knee_angle_r	knee_angle_r_beta	ankle_angle_r	subtalar_angle_r	mtp_angle_r	hip_flexion_l	hip_adduction_l	hip_rotation_l	knee_angle_l	knee_angle_l_beta	ankle_angle_l	subtalar_angle_l	mtp_angle_l	lumbar_extension	lumbar_bending	lumbar_rotation	arm_flex_r	arm_add_r	arm_rot_r	elbow_flex_r	pro_sup_r	wrist_flex_r	wrist_dev_r	arm_flex_l	arm_add_l	arm_rot_l	elbow_flex_l	pro_sup_l	wrist_flex_l	wrist_dev_l
1760625116.46900010	      0.15561328	     -0.11274288	      2.59115197	     -0.00120010	      0.93203161	      0.01102016	     80.00000000	     -7.00000000	      0.00000000	     80.00000000	      1.39626340	      0.00000000	      0.00000000	      0.00000000	     80.00000000	     -7.00000000	      0.00000000	     80.00000000	      1.39626340	      0.00000000	      0.00000000	      0.00000000	     -2.91666779	      0.44730603	      3.03013175	      4.92234988	    -12.15196395	     -3.48621111	     16.27586232	      9.78163064	     -6.07163521	      9.13866440	      3.73536380	      0.38862195	     -2.04008879	      0.00000000	      0.00000000	      7.35024684	      9.16169654
1760625116.50200009	      0.16663482	     -0.10755793	      2.59897194	     -0.00163223	      0.93246295	      0.01137501	     80.00000000	     -7.00000000	      0.00000000	     80.00000000	      1.39626340	      0.00000000	      0.00000000	      0.00000000	     80.00000000	     -7.00000000	      0.00000000	     80.00000000	      1.39626340	      0.00000000	      0.00000000	      0.00000000	     -2.91580088	      0.44836016	      3.06168012	      5.01243546	    -12.15277629	     -3.46136889	     16.26885486	      9.74701840	     -6.12983016	      9.10291835	      3.77156803	      0.43577146	     -2.09053426	      0.00000000	      0.00000000	      7.40454821	      9.18585738
1760625116.53600001	      0.16214844	     -0.10572750	      2.60694557	     -0.00305669	      0.93282539	      0.01115018	     80.00000000	     -7.00000000	      0.00000000	     80.00000000	      1.39626340	      0.00000000	      0.00000000	      0.00000000	     80.00000000	     -7.00000000	      0.00000000	     80.00000000	      1.39626340	      0.00000000	      0.00000000	      0.00000000	     -2.73176226	      0.45789916	      2.99885406	      4.85543964	    -12.11796189	     -3.27337373	     16.17907224	      9.50711262	     -5.99888438	      8.99293870	      3.58589874	      0.45913020	     -1.92926089	      0.00000000	      0.00000000	      7.31651423	      9.13134178
1760625116.56900001	      0.17229005	     -0.10161176	      2.58720545	     -0.00357437	      0.93290513	      0.01106262	     80.00000000	     -7.00000000	      0.00000000	     80.00000000	      1.39626340	      0.00000000	      0.00000000	      0.00000000	     80.00000000	     -7.00000000	      0.00000000	     80.00000000	      1.39626340	      0.00000000	      0.00000000	      0.00000000	     -2.70689961	      0.47667765	      3.01778983	      4.87262552	    -12.13491469	     -3.16385992	     16.10955760	      9.50099768	     -6.01795228	      9.01636488	      3.54728509	      0.50863159	     -1.80014730	      0.00000000	      0.00000000	      7.30852993	      9.13275065
1760625116.60299993	      0.18173157	     -0.09848445	      2.59736019	     -0.00367281	      0.93294587	      0.01101448	     80.00000000	     -7.00000000	      0.00000000	     80.00000000	      1.39626340	      0.00000000	      0.00000000	      0.00000000	     80.00000000	     -7.00000000	      0.00000000	     80.00000000	      1.39626340	      0.00000000	      0.00000000	      0.00000000	     -2.67488598	      0.49178043	      3.01525489	      4.98130471	    -12.13631926	     -2.94676638	     15.62484013	      9.39734970	     -5.69976988	      9.10481041	      3.50416339	      0.56722080	     -1.69998439	      0.00000000	      0.00000000	      7.29920526	      9.17586716
